<mxfile host="Electron" agent="Mozilla/5.0 (Windows NT 10.0; Win64; x64) AppleWebKit/537.36 (KHTML, like Gecko) draw.io/26.0.4 Chrome/128.0.6613.186 Electron/32.2.5 Safari/537.36" version="26.0.4">
  <diagram name="Page-1" id="74e2e168-ea6b-b213-b513-2b3c1d86103e">
    <mxGraphModel dx="1395" dy="797" grid="1" gridSize="10" guides="1" tooltips="1" connect="1" arrows="1" fold="1" page="1" pageScale="1" pageWidth="1100" pageHeight="850" background="none" math="0" shadow="0">
      <root>
        <mxCell id="0" />
        <mxCell id="1" parent="0" />
        <mxCell id="yQzG52SA-tjyhoEo9p2n-7" style="edgeStyle=orthogonalEdgeStyle;rounded=0;orthogonalLoop=1;jettySize=auto;html=1;exitX=0.5;exitY=1;exitDx=0;exitDy=0;" edge="1" parent="1" source="yQzG52SA-tjyhoEo9p2n-1" target="yQzG52SA-tjyhoEo9p2n-3">
          <mxGeometry relative="1" as="geometry" />
        </mxCell>
        <mxCell id="yQzG52SA-tjyhoEo9p2n-8" style="edgeStyle=orthogonalEdgeStyle;rounded=0;orthogonalLoop=1;jettySize=auto;html=1;exitX=0.5;exitY=1;exitDx=0;exitDy=0;" edge="1" parent="1" source="yQzG52SA-tjyhoEo9p2n-1" target="yQzG52SA-tjyhoEo9p2n-4">
          <mxGeometry relative="1" as="geometry" />
        </mxCell>
        <mxCell id="yQzG52SA-tjyhoEo9p2n-9" style="edgeStyle=orthogonalEdgeStyle;rounded=0;orthogonalLoop=1;jettySize=auto;html=1;exitX=0.5;exitY=1;exitDx=0;exitDy=0;" edge="1" parent="1" source="yQzG52SA-tjyhoEo9p2n-1" target="yQzG52SA-tjyhoEo9p2n-5">
          <mxGeometry relative="1" as="geometry" />
        </mxCell>
        <mxCell id="yQzG52SA-tjyhoEo9p2n-10" style="edgeStyle=orthogonalEdgeStyle;rounded=0;orthogonalLoop=1;jettySize=auto;html=1;exitX=0.5;exitY=1;exitDx=0;exitDy=0;" edge="1" parent="1" source="yQzG52SA-tjyhoEo9p2n-1" target="yQzG52SA-tjyhoEo9p2n-6">
          <mxGeometry relative="1" as="geometry" />
        </mxCell>
        <mxCell id="yQzG52SA-tjyhoEo9p2n-13" value="&lt;font style=&quot;font-size: 18px;&quot;&gt;PWM&lt;/font&gt;" style="edgeLabel;html=1;align=center;verticalAlign=middle;resizable=0;points=[];" vertex="1" connectable="0" parent="yQzG52SA-tjyhoEo9p2n-10">
          <mxGeometry x="-0.8222" relative="1" as="geometry">
            <mxPoint as="offset" />
          </mxGeometry>
        </mxCell>
        <mxCell id="yQzG52SA-tjyhoEo9p2n-1" value="FCU" style="rounded=0;whiteSpace=wrap;html=1;" vertex="1" parent="1">
          <mxGeometry x="480" y="420" width="120" height="60" as="geometry" />
        </mxCell>
        <mxCell id="yQzG52SA-tjyhoEo9p2n-2" value="HPU" style="whiteSpace=wrap;html=1;" vertex="1" parent="1">
          <mxGeometry x="480" y="260" width="120" height="60" as="geometry" />
        </mxCell>
        <mxCell id="yQzG52SA-tjyhoEo9p2n-18" style="edgeStyle=orthogonalEdgeStyle;rounded=0;orthogonalLoop=1;jettySize=auto;html=1;exitX=0.5;exitY=1;exitDx=0;exitDy=0;" edge="1" parent="1" source="yQzG52SA-tjyhoEo9p2n-3" target="yQzG52SA-tjyhoEo9p2n-14">
          <mxGeometry relative="1" as="geometry" />
        </mxCell>
        <mxCell id="yQzG52SA-tjyhoEo9p2n-3" value="ESCA" style="rounded=0;whiteSpace=wrap;html=1;" vertex="1" parent="1">
          <mxGeometry x="240" y="600" width="120" height="60" as="geometry" />
        </mxCell>
        <mxCell id="yQzG52SA-tjyhoEo9p2n-19" style="edgeStyle=orthogonalEdgeStyle;rounded=0;orthogonalLoop=1;jettySize=auto;html=1;exitX=0.5;exitY=1;exitDx=0;exitDy=0;entryX=0.5;entryY=0;entryDx=0;entryDy=0;" edge="1" parent="1" source="yQzG52SA-tjyhoEo9p2n-4" target="yQzG52SA-tjyhoEo9p2n-15">
          <mxGeometry relative="1" as="geometry" />
        </mxCell>
        <mxCell id="yQzG52SA-tjyhoEo9p2n-4" value="ESCB" style="rounded=0;whiteSpace=wrap;html=1;" vertex="1" parent="1">
          <mxGeometry x="400" y="600" width="120" height="60" as="geometry" />
        </mxCell>
        <mxCell id="yQzG52SA-tjyhoEo9p2n-20" style="edgeStyle=orthogonalEdgeStyle;rounded=0;orthogonalLoop=1;jettySize=auto;html=1;exitX=0.5;exitY=1;exitDx=0;exitDy=0;" edge="1" parent="1" source="yQzG52SA-tjyhoEo9p2n-5" target="yQzG52SA-tjyhoEo9p2n-16">
          <mxGeometry relative="1" as="geometry" />
        </mxCell>
        <mxCell id="yQzG52SA-tjyhoEo9p2n-5" value="ESCC" style="rounded=0;whiteSpace=wrap;html=1;" vertex="1" parent="1">
          <mxGeometry x="560" y="600" width="120" height="60" as="geometry" />
        </mxCell>
        <mxCell id="yQzG52SA-tjyhoEo9p2n-21" style="edgeStyle=orthogonalEdgeStyle;rounded=0;orthogonalLoop=1;jettySize=auto;html=1;exitX=0.5;exitY=1;exitDx=0;exitDy=0;entryX=0.5;entryY=0;entryDx=0;entryDy=0;" edge="1" parent="1" source="yQzG52SA-tjyhoEo9p2n-6" target="yQzG52SA-tjyhoEo9p2n-17">
          <mxGeometry relative="1" as="geometry" />
        </mxCell>
        <mxCell id="yQzG52SA-tjyhoEo9p2n-6" value="ESCD" style="rounded=0;whiteSpace=wrap;html=1;" vertex="1" parent="1">
          <mxGeometry x="720" y="600" width="120" height="60" as="geometry" />
        </mxCell>
        <mxCell id="yQzG52SA-tjyhoEo9p2n-12" value="" style="shape=flexArrow;endArrow=classic;startArrow=classic;html=1;rounded=0;exitX=0.5;exitY=0;exitDx=0;exitDy=0;entryX=0.5;entryY=1;entryDx=0;entryDy=0;" edge="1" parent="1" source="yQzG52SA-tjyhoEo9p2n-1" target="yQzG52SA-tjyhoEo9p2n-2">
          <mxGeometry width="100" height="100" relative="1" as="geometry">
            <mxPoint x="500" y="540" as="sourcePoint" />
            <mxPoint x="600" y="440" as="targetPoint" />
          </mxGeometry>
        </mxCell>
        <mxCell id="yQzG52SA-tjyhoEo9p2n-26" value="&lt;font style=&quot;font-size: 18px;&quot;&gt;SPI&lt;/font&gt;" style="edgeLabel;html=1;align=center;verticalAlign=middle;resizable=0;points=[];" vertex="1" connectable="0" parent="yQzG52SA-tjyhoEo9p2n-12">
          <mxGeometry x="-0.0433" y="-1" relative="1" as="geometry">
            <mxPoint as="offset" />
          </mxGeometry>
        </mxCell>
        <mxCell id="yQzG52SA-tjyhoEo9p2n-14" value="M1" style="ellipse;whiteSpace=wrap;html=1;aspect=fixed;" vertex="1" parent="1">
          <mxGeometry x="260" y="740" width="80" height="80" as="geometry" />
        </mxCell>
        <mxCell id="yQzG52SA-tjyhoEo9p2n-15" value="M2" style="ellipse;whiteSpace=wrap;html=1;aspect=fixed;" vertex="1" parent="1">
          <mxGeometry x="420" y="740" width="80" height="80" as="geometry" />
        </mxCell>
        <mxCell id="yQzG52SA-tjyhoEo9p2n-16" value="M3" style="ellipse;whiteSpace=wrap;html=1;aspect=fixed;" vertex="1" parent="1">
          <mxGeometry x="580" y="740" width="80" height="80" as="geometry" />
        </mxCell>
        <mxCell id="yQzG52SA-tjyhoEo9p2n-17" value="M4" style="ellipse;whiteSpace=wrap;html=1;aspect=fixed;" vertex="1" parent="1">
          <mxGeometry x="740" y="740" width="80" height="80" as="geometry" />
        </mxCell>
        <mxCell id="yQzG52SA-tjyhoEo9p2n-34" style="edgeStyle=orthogonalEdgeStyle;rounded=0;orthogonalLoop=1;jettySize=auto;html=1;exitX=0;exitY=0.5;exitDx=0;exitDy=0;entryX=1;entryY=0.5;entryDx=0;entryDy=0;" edge="1" parent="1" source="yQzG52SA-tjyhoEo9p2n-24" target="yQzG52SA-tjyhoEo9p2n-2">
          <mxGeometry relative="1" as="geometry" />
        </mxCell>
        <mxCell id="yQzG52SA-tjyhoEo9p2n-24" value="IMU" style="rounded=0;whiteSpace=wrap;html=1;" vertex="1" parent="1">
          <mxGeometry x="880" y="260" width="120" height="60" as="geometry" />
        </mxCell>
        <mxCell id="yQzG52SA-tjyhoEo9p2n-35" style="edgeStyle=orthogonalEdgeStyle;rounded=0;orthogonalLoop=1;jettySize=auto;html=1;exitX=0;exitY=0.5;exitDx=0;exitDy=0;entryX=1;entryY=0.5;entryDx=0;entryDy=0;" edge="1" parent="1" source="yQzG52SA-tjyhoEo9p2n-29" target="yQzG52SA-tjyhoEo9p2n-2">
          <mxGeometry relative="1" as="geometry" />
        </mxCell>
        <mxCell id="yQzG52SA-tjyhoEo9p2n-37" value="&lt;font style=&quot;font-size: 18px;&quot;&gt;I2C&lt;/font&gt;" style="edgeLabel;html=1;align=center;verticalAlign=middle;resizable=0;points=[];" vertex="1" connectable="0" parent="yQzG52SA-tjyhoEo9p2n-35">
          <mxGeometry x="0.5648" y="-1" relative="1" as="geometry">
            <mxPoint as="offset" />
          </mxGeometry>
        </mxCell>
        <mxCell id="yQzG52SA-tjyhoEo9p2n-29" value="BMU" style="whiteSpace=wrap;html=1;" vertex="1" parent="1">
          <mxGeometry x="880" y="180" width="120" height="60" as="geometry" />
        </mxCell>
        <mxCell id="yQzG52SA-tjyhoEo9p2n-32" style="edgeStyle=orthogonalEdgeStyle;rounded=0;orthogonalLoop=1;jettySize=auto;html=1;exitX=1;exitY=0.5;exitDx=0;exitDy=0;entryX=0;entryY=0.5;entryDx=0;entryDy=0;" edge="1" parent="1" source="yQzG52SA-tjyhoEo9p2n-30" target="yQzG52SA-tjyhoEo9p2n-2">
          <mxGeometry relative="1" as="geometry" />
        </mxCell>
        <mxCell id="yQzG52SA-tjyhoEo9p2n-33" value="&lt;font style=&quot;font-size: 18px;&quot;&gt;Analog&lt;/font&gt;" style="edgeLabel;html=1;align=center;verticalAlign=middle;resizable=0;points=[];" vertex="1" connectable="0" parent="yQzG52SA-tjyhoEo9p2n-32">
          <mxGeometry x="-0.2024" relative="1" as="geometry">
            <mxPoint as="offset" />
          </mxGeometry>
        </mxCell>
        <mxCell id="yQzG52SA-tjyhoEo9p2n-30" value="DMU" style="whiteSpace=wrap;html=1;" vertex="1" parent="1">
          <mxGeometry x="80" y="260" width="120" height="60" as="geometry" />
        </mxCell>
        <mxCell id="yQzG52SA-tjyhoEo9p2n-39" style="edgeStyle=orthogonalEdgeStyle;rounded=0;orthogonalLoop=1;jettySize=auto;html=1;exitX=0.5;exitY=1;exitDx=0;exitDy=0;" edge="1" parent="1" source="yQzG52SA-tjyhoEo9p2n-38" target="yQzG52SA-tjyhoEo9p2n-2">
          <mxGeometry relative="1" as="geometry" />
        </mxCell>
        <mxCell id="yQzG52SA-tjyhoEo9p2n-40" value="&lt;font style=&quot;font-size: 18px;&quot;&gt;PWM&lt;/font&gt;" style="edgeLabel;html=1;align=center;verticalAlign=middle;resizable=0;points=[];" vertex="1" connectable="0" parent="yQzG52SA-tjyhoEo9p2n-39">
          <mxGeometry x="0.1278" y="-2" relative="1" as="geometry">
            <mxPoint as="offset" />
          </mxGeometry>
        </mxCell>
        <mxCell id="yQzG52SA-tjyhoEo9p2n-38" value="Reciver" style="rounded=0;whiteSpace=wrap;html=1;" vertex="1" parent="1">
          <mxGeometry x="480" y="120" width="120" height="60" as="geometry" />
        </mxCell>
      </root>
    </mxGraphModel>
  </diagram>
</mxfile>
